<svg xmlns="http://www.w3.org/2000/svg" t="1761147213003" class="icon" viewBox="0 0 1024 1024" version="1.1" p-id="4677" width="200" height="200"><path d="M873 94.9H150.8c-47.8 0-86.6 37.5-86.6 83.7v486c0 46.2 38.8 82.8 86.6 82.8h722.1c47.9 0 86.7-36.6 86.7-82.8v-486c0.1-46.2-38.8-83.7-86.6-83.7zM553 727.5h-59.7v-59.7H553v59.7z m348.9-151.4c0 30.8-25.9 56.6-57.8 56.6H179.8c-31.9 0-57.8-25.8-57.8-56.6V206.5c0-30.8 25.8-56.7 57.8-56.7h664.4c31.9 0 57.8 25.8 57.8 56.7l-0.1 369.6zM642.2 873.5v-73.1l-260.3 0.3v75.1l-52.6 27.3s-17.4 28.7 8.5 27.9h347.5s24.1-11.6 12-23.2c-12-11.7-55.1-34.3-55.1-34.3z" fill="#2c2c2c" p-id="4678"/></svg>